<svg id="sams_logo2" xmlns="http://www.w3.org/2000/svg" xmlns:xlink="http://www.w3.org/1999/xlink" viewBox="0 0 1122.52 793.701" shape-rendering="geometricPrecision" text-rendering="geometricPrecision">
<path d="M687.211,367.086c0,4.87,3.417,5.743,7.348,8.969c2.891,2.372,7.176,6.719,10.344,6.719c7.421,0,5.525-6.825,4.825-9.908h21.713c7.232,0,16.084,1.593,16.084-5.78c0-7.806-8.445-5.78-16.084-5.78h-22.517c3.501-6.793,1.394-9.908-5.63-9.908-2.06,0-9.412,6.954-11.15,8.368-2.217,1.805-4.933,2.873-4.933,7.32Z" clip-rule="evenodd" fill="#06b9cf" fill-rule="evenodd" stroke-width="0.058162"/><path d="M922.034,85.534c0,2.981.284,2.099,1.609,4.13l-32.812.163c-5.295.823-5.79,2.399-5.79,7.267c0,5.874,11.133,4.128,16.888,4.128h21.714c-3.34,5.12-2.125,9.908,4.825,9.908.907,0,17.24-10.31,16.67-16.413-.33-3.502-23.104-24.548-23.104-9.183Z" clip-rule="evenodd" fill="#06b9cf" fill-rule="evenodd" stroke-width="0.058162"/><g transform="matrix(.0574 0 0 0.05893 571.911987-55.948002)" clip-rule="evenodd"><path d="M2695.184,2750.982v182.138h-504.368c-256.486,0-196.137,311.473-196.137,476.336c0,69.466,77.541,70.062,126.092,70.062c71.402,0,57.237-83.085,56.261-153.892-1.208-87.073-2.383-126.952,13.784-196.369h504.368c0,69.053-39.714,392.292,70.062,392.292h742.535c109.776,0,70.046-323.239,70.046-392.292h3684.696v2521.838l.116,546.514c1.621,170.638,2.035,154.008-140.224,154.008-49.41,0-113.714-72.412-156.605-95.579-278.991-150.747-847.86-152.832-1159.251-126.572-68.639,5.792-114.79,9.383-225.873,11.369-164.764,2.928-201.483,83.267-125.48,196.766c451.829,0,1653.21-215.333,1653.21,504.367c0,248.858-85.087,450.572-294.76,559.868-279.835,145.85-426.512-54.524-778.973-158.624-747.782-220.843-1336.657,15.455-1708.612-210.799-242.9-147.769-504.284-280-777.98-370.845l-586.724-169.844c-52.108-12.228-114.013-28.131-157.681-38.456-53.995-12.775-112.06-30.431-164.532-31.606c116.395-158.872,827.192-58.28,976.401-37.728c149.656,20.618,327.508,23.712,508.67,23.712-11.534,49.577-150.814,304.987,69.764,322.527c268.417,21.347,662.016-19.79,1041.433,37.365c150.864,22.719,306.178,40.26,439.584,106.814c72.975,36.388,134.746,107.724,200.506,107.724c107.096,0,172.458-194.466-201.019-317.364-416.368-137.03-913.09-130.974-1368.13-130.974c149.044-222.564,994.72-74.761,994.72-238.168c0-170.654-98.657-121.492-294.182-112.059-112.192,5.411-226.419,27.998-350.277,27.998c0-139.562,42.974-420.306-84.061-420.306-160.925,0-112.093,146.213-112.093,434.322h-196.137v-658.491c0-106.434-196.138-117.057-196.138,28.031v630.46l-196.154-14.016v-980.72c-91.938-61.557-66.405-36.487-168.122-28.015-36.454,156.506-13.999,789.563-13.999,994.719-286.057-6.371-696.981-138.668-1105.092,15.737-28.643,10.838-58.445,24.143-85.385,40.707-19.393,11.947-22.14,13.999-40.922,29.123-129.451,104.249-8.604,68.557-267.705,68.557-37.083-159.171-13.999-1104.529-13.999-1344.981v-1373.011c-10.756-7.198-59.306-42.031-70.062-42.031-48.848,0-112.076,20.072-112.076,70.046v2703.976c0,171.349,171.763,168.966,294.578,167.758c130.593-1.274,98.259,8.638,183.495,40.674c104.481,39.267,638.833,147.355,921.232,241.626c219.585,73.306,441.587,177.009,646.296,278.379c286.42,141.828,323.304,238.267,700.405,238.267c131.404,0,239.724-4.054,350.989-13.271c128.144-10.607,239.542,8.654,349.417,13.37c229.199,9.863,422.673,59.34,607.889,120.648c59.355,19.642,78.186,26.989,130.079,52.059c347.597,167.924,243.695,103.67,499.304,411.354c80.868,97.332,126.754,116.362,261.931,116.362c283.243,0,378.54-96.274,534.815-235.752c159.203-142.11,237.787-494.688,91.441-670.72l-244.737-329.676c-35.164-48.335-23.696-35.726-37.414-102.693-2.102-10.194-9.879-44.695-13.652-56.907-63.36-205.139,11.997-30.53,136.169-155.1c52.985-53.134,52.39-140.935,51.844-242.371-1.059-196.071-.1-392.424-.1-588.528v-2255.638c.017-234.362,30.564-462.337-210.153-462.337h-3670.68c0-63.261,34.419-280.215-70.046-280.215h-742.535c-45.291,0-70.062,50.867-70.062,98.077Zm149.836,170.411l1.906,325.112c.268,46.407-1.522,119.282,72.555,119.282l402.066-.358c50.565,0,75.816-25.252,75.816-75.816v-400.71c0-26.083-38.912-64.982-64.982-64.982h-411.558c-60.735,0-75.803,37.44-75.803,97.472Z" clip-rule="evenodd" fill="#06b9cf" fill-rule="evenodd"/><path d="M3549.812,3703.67v630.46c0,63.079,26.509,140.107,84.061,140.107h728.537c32.664,0,70.045-37.38,70.045-70.045v-742.552c0-45.291-50.85-70.046-98.077-70.046h-700.505c-45.39,0-84.061,60.878-84.061,112.076Zm165.15,157.523l1.906,325.112c.268,46.407-1.522,119.282,72.555,119.282l402.066-.358c50.565,0,75.816-25.252,75.816-75.816v-400.71c0-26.083-38.912-64.982-64.982-64.982h-411.558c-60.735,0-75.803,37.44-75.803,97.472Z" clip-rule="evenodd" fill="#06b9cf" fill-rule="evenodd"/><path d="M4068.195,2260.63l2.466,420.571c.347,60.034-1.969,154.305,93.857,154.305l520.121-.463c65.412,0,98.077-32.665,98.077-98.077v-518.367c0-33.74-50.338-84.061-84.061-84.061h-532.399c-78.568,0-98.061,48.434-98.061,126.092Zm140.531,88.266l1.496,255.137c.21,36.419-1.194,93.608,56.938,93.608l315.528-.281c39.682,0,59.498-19.816,59.498-59.498v-314.464c0-20.468-30.537-50.995-50.995-50.995h-322.977c-47.663,0-59.488,29.382-59.488,76.493Z" clip-rule="evenodd" fill="#06b9cf" fill-rule="evenodd"/><path d="M2484.531,4706.936l2.119,361.449c.299,51.594-1.692,132.613,80.663,132.613l447.004-.398c56.217,0,84.29-28.073,84.29-84.29v-445.496c0-28.997-43.262-72.244-72.244-72.244h-457.556c-67.523,0-84.276,41.625-84.276,108.366Zm120.776,75.858l1.285,219.271c.181,31.299-1.026,80.449,48.934,80.449l271.172-.242c34.104,0,51.134-17.03,51.134-51.134v-270.257c0-17.591-26.244-43.827-43.826-43.827h-277.574c-40.963,0-51.125,25.252-51.125,65.74Z" clip-rule="evenodd" fill="#06b9cf" fill-rule="evenodd"/></g><g id="gearpath" transform="translate(946.276489,215.573997) rotate(129.814236)"><path d="M930.018,172.301c22.327-9.028,47.556,2.235,56.35,25.159c8.793,22.923-2.177,48.825-24.504,57.854-22.328,9.029-47.556-2.235-56.35-25.159-8.794-22.923,2.177-48.825,24.504-57.854Zm93.16,43.38l-3.793-26.544-18.494-5.138c-2.269912-4.304169-5.030634-8.330992-8.227-12l2.105-18.695-22.613-13.446-15.409,11.68h-.005c-4.707177-.847917-9.498899-1.129585-14.273-.839l-12.958-13.31-24.313,9.832-.664,19.64c-3.297268,3.020776-6.262727,6.384827-8.846,10.035l-18.256,1.814-8.057,25.521l14.35,13.008c.188371,4.901612.932125,9.76604,2.217,14.5l-9.966,15.817l14.468,22.341l18.854-3.46c3.850554,2.881434,8.021633,5.307573,12.43,7.23l5.878,17.845l26.039,2.247l9.08-17.323c2.118671-.600399,4.203373-1.314772,6.245-2.14c2.402465-.967649,4.739988-2.089312,6.998-3.358l17.264,6.364l17.9-19.547-7.576-18.073c1.870399-4.523532,3.2256-9.243253,4.04-14.07Z" transform="translate(-946.276489,-215.573997)" clip-rule="evenodd" fill="#06b9cf" stroke-width="0.058162"/></g></svg>
