<?xml version="1.0" encoding="UTF-8" standalone="no"?>
<!-- Creator: CorelDRAW 2019 (64-Bit) -->

<svg
   xmlns:dc="http://purl.org/dc/elements/1.1/"
   xmlns:cc="http://creativecommons.org/ns#"
   xmlns:rdf="http://www.w3.org/1999/02/22-rdf-syntax-ns#"
   xmlns:svg="http://www.w3.org/2000/svg"
   xmlns="http://www.w3.org/2000/svg"
   xmlns:sodipodi="http://sodipodi.sourceforge.net/DTD/sodipodi-0.dtd"
   xmlns:inkscape="http://www.inkscape.org/namespaces/inkscape"
   xml:space="preserve"
   width="100%"
   height="100%"
   version="1.1"
   style="shape-rendering:geometricPrecision; text-rendering:geometricPrecision; image-rendering:optimizeQuality; fill-rule:evenodd; clip-rule:evenodd"
   viewBox="0 0 10000 10000"
   id="svg861"
   sodipodi:docname="SAMA_logo.svg"
   inkscape:version="0.92.4 (5da689c313, 2019-01-14)"><metadata
   id="metadata865"><rdf:RDF><cc:Work
       rdf:about=""><dc:format>image/svg+xml</dc:format><dc:type
         rdf:resource="http://purl.org/dc/dcmitype/StillImage" /></cc:Work></rdf:RDF></metadata><sodipodi:namedview
   pagecolor="#ffffff"
   bordercolor="#666666"
   borderopacity="1"
   objecttolerance="10"
   gridtolerance="10"
   guidetolerance="10"
   inkscape:pageopacity="0"
   inkscape:pageshadow="2"
   inkscape:window-width="1920"
   inkscape:window-height="1051"
   id="namedview863"
   showgrid="false"
   inkscape:zoom="0.0858"
   inkscape:cx="5000"
   inkscape:cy="5000"
   inkscape:window-x="-9"
   inkscape:window-y="-9"
   inkscape:window-maximized="1"
   inkscape:current-layer="svg861" />
 <defs
   id="defs843">
  <style
   type="text/css"
   id="style841">
   <![CDATA[
    .fil0 {fill:#06B9CF}
    .fil1 {fill:#06B9CF;fill-rule:nonzero}
   ]]>
  </style>
 
  
  
  
  
  
  
  
  
 </defs>
 <path
   style="fill:#06b9cf"
   inkscape:connector-curvature="0"
   id="leftarrowpath"
   d="m 2008.694,7178.213 c 0,82.622 59.522,97.449 128.012,152.188 50.37,40.243 125.016,114.012 180.202,114.012 129.302,0 96.257,-115.816 84.061,-168.123 126.092,0 252.184,-0.033 378.276,0 125.992,0.033 280.215,27.039 280.215,-98.077 0,-132.462 -147.124,-98.077 -280.215,-98.077 -130.758,0.017 -261.517,0 -392.275,0 60.994,-115.269 24.292,-168.122 -98.077,-168.122 -35.891,0 -163.986,118 -194.251,141.994 -38.622,30.629 -85.948,48.749 -85.948,124.205 z"
   class="fil0" /><path
   style="fill:#06b9cf"
   inkscape:connector-curvature="0"
   id="rightarrowpath"
   d="m 6099.681,2400.721 c 0,50.586 4.948,35.61 28.015,70.062 l -571.633,2.78 c -92.236,13.966 -100.857,40.707 -100.857,123.312 0,99.665 193.937,70.045 294.214,70.045 126.092,0 252.184,0 378.276,0 -58.181,86.891 -37.017,168.123 84.061,168.123 15.803,0 300.354,-174.957 290.409,-278.494 -5.726,-59.439 -402.485,-416.55 -402.485,-155.828 z"
   class="fil0" /><g
   id="mainpath"><path
     class="fil0"
     d="m 2695.184,2750.982 v 182.138 h -504.368 c -256.486,0 -196.137,311.473 -196.137,476.336 0,69.466 77.541,70.062 126.092,70.062 71.402,0 57.237,-83.085 56.261,-153.892 -1.208,-87.073 -2.383,-126.952 13.784,-196.369 h 504.368 c 0,69.053 -39.714,392.292 70.062,392.292 h 742.535 c 109.776,0 70.046,-323.239 70.046,-392.292 h 3684.696 v 476.353 2045.485 l 0.116,546.514 c 1.621,170.638 2.035,154.008 -140.224,154.008 -49.41,0 -113.714,-72.412 -156.605,-95.579 -278.991,-150.747 -847.86,-152.832 -1159.251,-126.572 -68.639,5.792 -114.79,9.383 -225.873,11.369 -164.764,2.928 -201.483,83.267 -125.48,196.766 451.829,0 1653.21,-215.333 1653.21,504.367 0,248.858 -85.087,450.572 -294.76,559.868 -279.835,145.85 -426.512,-54.524 -778.973,-158.624 -747.782,-220.843 -1336.657,15.455 -1708.612,-210.799 -242.9,-147.769 -504.284,-280 -777.98,-370.845 l -586.724,-169.844 c -52.108,-12.228 -114.013,-28.131 -157.681,-38.456 -53.995,-12.775 -112.06,-30.431 -164.532,-31.606 116.395,-158.872 827.192,-58.28 976.401,-37.728 149.656,20.618 327.508,23.712 508.67,23.712 -11.534,49.577 -150.814,304.987 69.764,322.527 268.417,21.347 662.016,-19.79 1041.433,37.365 150.864,22.719 306.178,40.26 439.584,106.814 72.975,36.388 134.746,107.724 200.506,107.724 107.096,0 172.458,-194.466 -201.019,-317.364 -416.368,-137.03 -913.09,-130.974 -1368.13,-130.974 149.044,-222.564 994.72,-74.761 994.72,-238.168 0,-170.654 -98.657,-121.492 -294.182,-112.059 -112.192,5.411 -226.419,27.998 -350.277,27.998 0,-139.562 42.974,-420.306 -84.061,-420.306 -160.925,0 -112.093,146.213 -112.093,434.322 h -196.137 v -658.491 c 0,-106.434 -196.138,-117.057 -196.138,28.031 v 630.46 l -196.154,-14.016 v -980.72 c -91.938,-61.557 -66.405,-36.487 -168.122,-28.015 -36.454,156.506 -13.999,789.563 -13.999,994.719 -286.057,-6.371 -696.981,-138.668 -1105.092,15.737 -28.643,10.838 -58.445,24.143 -85.385,40.707 -19.393,11.947 -22.14,13.999 -40.922,29.123 -129.451,104.249 -8.604,68.557 -267.705,68.557 -37.083,-159.171 -13.999,-1104.529 -13.999,-1344.981 0,-457.67 0,-915.341 0,-1373.011 -10.756,-7.198 -59.306,-42.031 -70.062,-42.031 -48.848,0 -112.076,20.072 -112.076,70.046 v 2703.976 c 0,171.349 171.763,168.966 294.578,167.758 130.593,-1.274 98.259,8.638 183.495,40.674 104.481,39.267 638.833,147.355 921.232,241.626 219.585,73.306 441.587,177.009 646.296,278.379 286.42,141.828 323.304,238.267 700.405,238.267 131.404,0 239.724,-4.054 350.989,-13.271 128.144,-10.607 239.542,8.654 349.417,13.37 229.199,9.863 422.673,59.34 607.889,120.648 59.355,19.642 78.186,26.989 130.079,52.059 347.597,167.924 243.695,103.67 499.304,411.354 80.868,97.332 126.754,116.362 261.931,116.362 283.243,0 378.54,-96.274 534.815,-235.752 159.203,-142.11 237.787,-494.688 91.441,-670.72 l -244.737,-329.676 c -35.164,-48.335 -23.696,-35.726 -37.414,-102.693 -2.102,-10.194 -9.879,-44.695 -13.652,-56.907 -63.36,-205.139 11.997,-30.53 136.169,-155.1 52.985,-53.134 52.39,-140.935 51.844,-242.371 -1.059,-196.071 -0.1,-392.424 -0.1,-588.528 V 3395.457 c 0.017,-234.362 30.564,-462.337 -210.153,-462.337 h -3670.68 c 0,-63.261 34.419,-280.215 -70.046,-280.215 h -742.535 c -45.291,0 -70.062,50.867 -70.062,98.077 z m 149.836,170.411 1.906,325.112 c 0.268,46.407 -1.522,119.282 72.555,119.282 l 402.066,-0.358 c 50.565,0 75.816,-25.252 75.816,-75.816 v -400.71 c 0,-26.083 -38.912,-64.982 -64.982,-64.982 h -411.558 c -60.735,0 -75.803,37.44 -75.803,97.472 z"
     id="path850"
     inkscape:connector-curvature="0"
     style="fill:#06b9cf" /><path
     class="fil0"
     d="m 3549.812,3703.67 v 630.46 c 0,63.079 26.509,140.107 84.061,140.107 h 728.537 c 32.664,0 70.045,-37.38 70.045,-70.045 V 3661.64 c 0,-45.291 -50.85,-70.046 -98.077,-70.046 h -700.505 c -45.39,0 -84.061,60.878 -84.061,112.076 z m 165.15,157.523 1.906,325.112 c 0.268,46.407 -1.522,119.282 72.555,119.282 l 402.066,-0.358 c 50.565,0 75.816,-25.252 75.816,-75.816 v -400.71 c 0,-26.083 -38.912,-64.982 -64.982,-64.982 h -411.558 c -60.735,0 -75.803,37.44 -75.803,97.472 z"
     id="path852"
     inkscape:connector-curvature="0"
     style="fill:#06b9cf" /><path
     class="fil0"
     d="m 4068.195,2260.63 2.466,420.571 c 0.347,60.034 -1.969,154.305 93.857,154.305 l 520.121,-0.463 c 65.412,0 98.077,-32.665 98.077,-98.077 v -518.367 c 0,-33.74 -50.338,-84.061 -84.061,-84.061 h -532.399 c -78.568,0 -98.061,48.434 -98.061,126.092 z m 140.531,88.266 1.496,255.137 c 0.21,36.419 -1.194,93.608 56.938,93.608 l 315.528,-0.281 c 39.682,0 59.498,-19.816 59.498,-59.498 v -314.464 c 0,-20.468 -30.537,-50.995 -50.995,-50.995 h -322.977 c -47.663,0 -59.488,29.382 -59.488,76.493 z"
     id="path854"
     inkscape:connector-curvature="0"
     style="fill:#06b9cf" /><path
     class="fil0"
     d="m 2484.531,4706.936 2.119,361.449 c 0.299,51.594 -1.692,132.613 80.663,132.613 l 447.004,-0.398 c 56.217,0 84.29,-28.073 84.29,-84.29 v -445.496 c 0,-28.997 -43.262,-72.244 -72.244,-72.244 h -457.556 c -67.523,0 -84.276,41.625 -84.276,108.366 z m 120.776,75.858 1.285,219.271 c 0.181,31.299 -1.026,80.449 48.934,80.449 l 271.172,-0.242 c 34.104,0 51.134,-17.03 51.134,-51.134 v -270.257 c 0,-17.591 -26.244,-43.827 -43.826,-43.827 h -277.574 c -40.963,0 -51.125,25.252 -51.125,65.74 z"
     id="path856"
     inkscape:connector-curvature="0"
     style="fill:#06b9cf" /></g><path
   style="fill:#06b9cf;fill-rule:nonzero"
   inkscape:connector-curvature="0"
   id="gearpath"
   d="m 6238.769,3873.025 c 388.972,-153.202 828.491,37.926 981.693,426.898 153.203,388.972 -37.925,828.491 -426.897,981.693 -388.972,153.203 -828.491,-37.926 -981.693,-426.898 -153.203,-388.972 37.925,-828.49 426.897,-981.693 z m 1622.987,736.076 -66.081,-450.408 -322.188,-87.177 c -0.01,-0.012 -0.01,-0.024 -0.015,-0.037 -40.306,-74.433 -88.621,-142.444 -143.332,-203.632 l 36.666,-317.219 -393.944,-228.148 -268.446,198.178 c -0.01,-0.011 -0.045,-0.01 -0.05,-0.022 -81.32,-14.241 -164.793,-19.22 -248.667,-14.221 l -225.739,-225.851 -423.569,166.83 -11.575,333.25 c -57.646,51.436 -109.29,108.598 -154.112,170.29 v 0 l -318.039,30.775 -140.37,433.053 250.004,220.732 c 3.22,81.988 15.892,164.364 38.615,246.05 v 0 l -173.612,268.373 252.042,379.101 328.474,-58.702 c 67.349,49.158 140.131,90.157 216.559,122.679 0,0 0,0 0.01,0.013 l 102.384,302.785 453.644,38.138 158.2,-293.951 c 36.439,-10.063 72.789,-22.146 108.791,-36.326 42.297,-16.659 83.023,-35.615 121.906,-56.961 l 300.782,107.985 311.821,-331.689 -131.963,-306.66 c 32.472,-76.422 56.123,-156.601 70.369,-238.74 z"
   class="fil1" />
</svg>